<?xml version="1.0" encoding="UTF-8"?>
<svg width="1200" height="360" viewBox="0 0 1200 360" fill="none" xmlns="http://www.w3.org/2000/svg" role="img" aria-label="Kaz réunionnaise avec colocs sur la terrasse, style semi-réaliste">
  <defs>
    <!-- Ciel et horizon -->
    <linearGradient id="g-sky" x1="0" y1="0" x2="0" y2="1">
      <stop offset="0%" stop-color="#BFE5FF"/>
      <stop offset="50%" stop-color="#E7F5FF"/>
      <stop offset="100%" stop-color="#FFFFFF"/>
    </linearGradient>
    <linearGradient id="g-ocean" x1="0" y1="0" x2="0" y2="1">
      <stop offset="0%" stop-color="#5FB4F5"/>
      <stop offset="100%" stop-color="#2B6CB0"/>
    </linearGradient>
    <!-- Feuillage -->
    <linearGradient id="g-leaf" x1="0" y1="0" x2="1" y2="1">
      <stop offset="0%" stop-color="#2DD4BF"/>
      <stop offset="100%" stop-color="#059669"/>
    </linearGradient>
    <!-- Bois -->
    <linearGradient id="g-wood" x1="0" y1="0" x2="0" y2="1">
      <stop offset="0%" stop-color="#F1A545"/>
      <stop offset="100%" stop-color="#B76A24"/>
    </linearGradient>
    <!-- Ombres douces -->
    <filter id="f-soft" x="-30%" y="-30%" width="160%" height="160%">
      <feGaussianBlur stdDeviation="6"/>
    </filter>
    <filter id="f-soft-2" x="-40%" y="-40%" width="180%" height="180%">
      <feGaussianBlur stdDeviation="10"/>
    </filter>
    <!-- Texture bois subtile -->
    <pattern id="p-wood-lines" width="6" height="6" patternUnits="userSpaceOnUse">
      <path d="M0 3 H6" stroke="#E09C3A" stroke-width="0.6" opacity="0.35"/>
    </pattern>
    <!-- Tuiles toit -->
    <linearGradient id="g-roof" x1="0" y1="0" x2="1" y2="0">
      <stop offset="0%" stop-color="#C53030"/>
      <stop offset="60%" stop-color="#B91C1C"/>
      <stop offset="100%" stop-color="#8B1F1F"/>
    </linearGradient>
    <pattern id="p-tiles" width="18" height="10" patternUnits="userSpaceOnUse">
      <path d="M0 9 Q9 3 18 9" fill="none" stroke="#7F1D1D" stroke-width="1.2" opacity="0.5"/>
      <path d="M0 5 Q9 0 18 5" fill="none" stroke="#9B2C2C" stroke-width="0.8" opacity="0.4"/>
    </pattern>
    <!-- Nuage doux -->
    <radialGradient id="g-cloud" cx="50%" cy="50%" r="50%">
      <stop offset="0%" stop-color="#FFFFFF" stop-opacity="0.95"/>
      <stop offset="100%" stop-color="#FFFFFF" stop-opacity="0"/>
    </radialGradient>
  </defs>

  <!-- Fond ciel -->
  <rect width="1200" height="360" fill="url(#g-sky)"/>

  <!-- Nuages -->
  <g opacity="0.7" filter="url(#f-soft)">
    <ellipse cx="260" cy="70" rx="120" ry="28" fill="url(#g-cloud)"/>
    <ellipse cx="350" cy="78" rx="90" ry="22" fill="url(#g-cloud)"/>
    <ellipse cx="920" cy="60" rx="110" ry="26" fill="url(#g-cloud)"/>
    <ellipse cx="1020" cy="72" rx="80" ry="20" fill="url(#g-cloud)"/>
  </g>

  <!-- Océan lointain -->
  <rect y="252" width="1200" height="30" fill="url(#g-ocean)" opacity="0.25"/>
  <path d="M0 252 Q 120 248 240 252 T 480 252 T 720 252 T 960 252 T 1200 252" stroke="#60A5FA" stroke-width="1" opacity="0.35" fill="none"/>

  <!-- Montagnes -->
  <path d="M0 238 C 120 198, 220 202, 340 238 C 420 262, 520 218, 640 240 C 760 262, 880 208, 1000 240 C 1090 262, 1140 252, 1200 242 L 1200 360 L 0 360 Z" fill="#94E3C6" opacity="0.45"/>
  <path d="M0 248 C 120 210, 220 212, 340 248 C 420 272, 520 230, 640 250 C 760 270, 880 222, 1000 252 C 1080 270, 1140 260, 1200 250 L 1200 360 L 0 360 Z" fill="#34D399" opacity="0.25"/>

  <!-- Sol sableux -->
  <rect y="270" width="1200" height="90" fill="#F7E3A3"/>
  <path d="M0 300 Q 120 294 240 300 T 480 300 T 720 300 T 960 300 T 1200 300" stroke="#E7D089" stroke-width="2" opacity="0.45"/>

  <!-- Palmier gauche avec ombre -->
  <g transform="translate(86, 228)">
    <ellipse cx="-6" cy="96" rx="54" ry="10" fill="#000" opacity="0.12" filter="url(#f-soft-2)"/>
    <rect x="-8" y="-56" width="16" height="128" rx="8" fill="#7C3F19"/>
    <rect x="-8" y="-56" width="16" height="128" rx="8" fill="#000" opacity="0.1"/>
    <g transform="translate(0,-66)" stroke-linecap="round" fill="none">
      <path d="M0 0 C 42 -12, 92 -12, 136 10" stroke="url(#g-leaf)" stroke-width="18"/>
      <path d="M0 0 C -34 -8, -78 -10, -120 8" stroke="url(#g-leaf)" stroke-width="18"/>
      <path d="M0 0 C 28 -28, 70 -38, 106 -34" stroke="url(#g-leaf)" stroke-width="16"/>
      <path d="M0 0 C -28 -22, -66 -26, -100 -22" stroke="url(#g-leaf)" stroke-width="16"/>
    </g>
  </g>

  <!-- KAZ -->
  <g transform="translate(320, 132)">
    <!-- Ombre générale -->
    <ellipse cx="270" cy="190" rx="300" ry="18" fill="#000" opacity="0.12" filter="url(#f-soft-2)"/>

    <!-- Terrasse / plancher -->
    <g>
      <rect x="0" y="160" width="540" height="32" rx="6" fill="url(#g-wood)"/>
      <rect x="0" y="160" width="540" height="32" rx="6" fill="url(#p-wood-lines)" opacity="0.6"/>
      <rect x="12" y="148" width="516" height="14" rx="4" fill="#F6B654"/>
      <!-- Pilotis -->
      <rect x="40" y="172" width="16" height="46" rx="4" fill="#8B5E34"/>
      <rect x="160" y="172" width="16" height="46" rx="4" fill="#8B5E34"/>
      <rect x="280" y="172" width="16" height="46" rx="4" fill="#8B5E34"/>
      <rect x="400" y="172" width="16" height="46" rx="4" fill="#8B5E34"/>
      <rect x="520" y="172" width="16" height="46" rx="4" fill="#8B5E34"/>
    </g>

    <!-- Corps de la maison -->
    <g>
      <rect x="20" y="40" width="500" height="120" rx="10" fill="#F7F7F9" stroke="#D4D6DB"/>
      <!-- Lames / bardage subtile -->
      <g opacity="0.2" stroke="#9CA3AF">
        <path d="M20 70 H520"/>
        <path d="M20 98 H520"/>
        <path d="M20 126 H520"/>
      </g>
      <!-- Volets créoles gauche -->
      <g>
        <rect x="46" y="56" width="88" height="88" rx="6" fill="#E8EBEF" stroke="#CBD5E1"/>
        <g fill="#9CA3AF">
          <rect x="52" y="64" width="76" height="6" rx="3"/>
          <rect x="52" y="78" width="76" height="6" rx="3"/>
          <rect x="52" y="92" width="76" height="6" rx="3"/>
          <rect x="52" y="106" width="76" height="6" rx="3"/>
          <rect x="52" y="120" width="76" height="6" rx="3"/>
          <rect x="52" y="134" width="76" height="6" rx="3"/>
        </g>
      </g>
      <!-- Porte -->
      <g>
        <rect x="186" y="62" width="76" height="98" rx="6" fill="#E8912B" stroke="#D97706"/>
        <circle cx="252" cy="112" r="3.2" fill="#6B3F22"/>
        <rect x="192" y="68" width="64" height="12" rx="3" fill="#F5B461" opacity="0.45"/>
      </g>
      <!-- Fenêtre droite -->
      <g>
        <rect x="330" y="56" width="88" height="88" rx="6" fill="#E8EBEF" stroke="#CBD5E1"/>
        <g fill="#9CA3AF">
          <rect x="336" y="64" width="76" height="6" rx="3"/>
          <rect x="336" y="78" width="76" height="6" rx="3"/>
          <rect x="336" y="92" width="76" height="6" rx="3"/>
          <rect x="336" y="106" width="76" height="6" rx="3"/>
          <rect x="336" y="120" width="76" height="6" rx="3"/>
          <rect x="336" y="134" width="76" height="6" rx="3"/>
        </g>
      </g>
    </g>

    <!-- Toit tuilé -->
    <g>
      <path d="M0 56 L270 -18 L540 56" fill="#000" opacity="0.18" filter="url(#f-soft)"/>
      <path d="M6 56 L270 -12 L534 56 L522 62 L270 -4 L18 62 Z" fill="url(#g-roof)"/>
      <path d="M18 56 L522 56 L522 62 L18 62 Z" fill="#7F1D1D" opacity="0.35"/>
      <path d="M18 56 L522 56" stroke="#F87171" stroke-width="1.2" opacity="0.3"/>
      <rect x="18" y="40" width="504" height="22" fill="url(#p-tiles)" opacity="0.8"/>
    </g>

    <!-- Terrasse : table et colocs -->
    <g transform="translate(74, 140)">
      <!-- Table -->
      <rect x="0" y="0" width="188" height="14" rx="7" fill="#8F5829"/>
      <rect x="0" y="0" width="188" height="14" rx="7" fill="url(#p-wood-lines)" opacity="0.5"/>
      <!-- Pieds table -->
      <rect x="10" y="12" width="6" height="18" rx="3" fill="#7B4620"/>
      <rect x="172" y="12" width="6" height="18" rx="3" fill="#7B4620"/>
      <!-- Chaises -->
      <rect x="-12" y="12" width="10" height="24" rx="3" fill="#8F5829"/>
      <rect x="190" y="12" width="10" height="24" rx="3" fill="#8F5829"/>
      <!-- Boissons -->
      <circle cx="42" cy="-2" r="4.5" fill="#60A5FA"/>
      <circle cx="74" cy="-2" r="4.5" fill="#34D399"/>
      <circle cx="106" cy="-2" r="4.5" fill="#F59E0B"/>
      <circle cx="138" cy="-2" r="4.5" fill="#EF4444"/>
    </g>

    <!-- Silhouettes -->
    <g transform="translate(96, 118)">
      <ellipse cx="0" cy="36" rx="20" ry="4" fill="#000" opacity="0.12" filter="url(#f-soft)"/>
      <circle cx="0" cy="0" r="11" fill="#F6C7B2"/>
      <rect x="-9" y="12" width="18" height="26" rx="5" fill="#2563EB"/>
    </g>
    <g transform="translate(148, 118)">
      <ellipse cx="0" cy="36" rx="20" ry="4" fill="#000" opacity="0.12" filter="url(#f-soft)"/>
      <circle cx="0" cy="0" r="11" fill="#F9D4A6"/>
      <rect x="-9" y="12" width="18" height="26" rx="5" fill="#0EA5A4"/>
    </g>
    <g transform="translate(200, 118)">
      <ellipse cx="0" cy="36" rx="20" ry="4" fill="#000" opacity="0.12" filter="url(#f-soft)"/>
      <circle cx="0" cy="0" r="11" fill="#F4E19E"/>
      <rect x="-9" y="12" width="18" height="26" rx="5" fill="#F59E0B"/>
    </g>
  </g>

  <!-- Oiseaux -->
  <g fill="#64748B" opacity="0.55">
    <path d="M965 78 q8 -6 16 0" stroke="#64748B" stroke-width="2" fill="none"/>
    <path d="M990 86 q8 -6 16 0" stroke="#64748B" stroke-width="2" fill="none"/>
    <path d="M1015 76 q8 -6 16 0" stroke="#64748B" stroke-width="2" fill="none"/>
  </g>
</svg>
